<svg width="1177" height="554" xmlns="http://www.w3.org/2000/svg" xmlns:xlink="http://www.w3.org/1999/xlink" xml:space="preserve" overflow="hidden"><defs><filter id="fx0" x="-10%" y="-10%" width="120%" height="120%" filterUnits="userSpaceOnUse" primitiveUnits="userSpaceOnUse"><feComponentTransfer color-interpolation-filters="sRGB"><feFuncR type="discrete" tableValues="0.082353 0.082353"/><feFuncG type="discrete" tableValues="0.376471 0.376471"/><feFuncB type="discrete" tableValues="0.509804 0.509804"/><feFuncA type="linear" slope="1.000000" intercept="0.000000"/></feComponentTransfer><feGaussianBlur stdDeviation="0.000000 0.000000"/></filter><filter id="fx1" x="-10%" y="-10%" width="120%" height="120%" filterUnits="userSpaceOnUse" primitiveUnits="userSpaceOnUse"><feComponentTransfer color-interpolation-filters="sRGB"><feFuncR type="discrete" tableValues="0.082353 0.082353"/><feFuncG type="discrete" tableValues="0.376471 0.376471"/><feFuncB type="discrete" tableValues="0.509804 0.509804"/><feFuncA type="linear" slope="1.000000" intercept="0.000000"/></feComponentTransfer><feGaussianBlur stdDeviation="0.000000 0.000000"/></filter><clipPath id="clip2"><rect x="1.2619" y="1.01343" width="814.465" height="314.75"/></clipPath><linearGradient x1="637.525" y1="1325.43" x2="1740.96" y2="1325.43" gradientUnits="userSpaceOnUse" spreadMethod="reflect" id="stroke3"><stop offset="0" stop-color="#FF0000" stop-opacity="1"/><stop offset="0.16" stop-color="#FFC000" stop-opacity="1"/><stop offset="0.34" stop-color="#FFFF00" stop-opacity="1"/><stop offset="0.51" stop-color="#006600" stop-opacity="1"/><stop offset="0.67" stop-color="#0000CC" stop-opacity="1"/><stop offset="0.83" stop-color="#000099" stop-opacity="1"/><stop offset="1" stop-color="#6600CC" stop-opacity="1"/></linearGradient><linearGradient x1="637.525" y1="1325.43" x2="1740.96" y2="1325.43" gradientUnits="userSpaceOnUse" spreadMethod="reflect" id="fill4"><stop offset="0" stop-color="#FF0000" stop-opacity="1"/><stop offset="0.16" stop-color="#FFC000" stop-opacity="1"/><stop offset="0.34" stop-color="#FFFF00" stop-opacity="1"/><stop offset="0.51" stop-color="#006600" stop-opacity="1"/><stop offset="0.67" stop-color="#0000CC" stop-opacity="1"/><stop offset="0.83" stop-color="#000099" stop-opacity="1"/><stop offset="1" stop-color="#6600CC" stop-opacity="1"/></linearGradient><clipPath id="clip5"><rect x="0.775269" y="1.1803" width="219.768" height="313.54"/></clipPath><linearGradient x1="637.525" y1="1325.43" x2="1740.96" y2="1325.43" gradientUnits="userSpaceOnUse" spreadMethod="reflect" id="stroke6"><stop offset="0" stop-color="#FF0000" stop-opacity="1"/><stop offset="0.16" stop-color="#FFC000" stop-opacity="1"/><stop offset="0.34" stop-color="#FFFF00" stop-opacity="1"/><stop offset="0.51" stop-color="#006600" stop-opacity="1"/><stop offset="0.67" stop-color="#0000CC" stop-opacity="1"/><stop offset="0.83" stop-color="#000099" stop-opacity="1"/><stop offset="1" stop-color="#6600CC" stop-opacity="1"/></linearGradient><linearGradient x1="637.525" y1="1325.43" x2="1740.96" y2="1325.43" gradientUnits="userSpaceOnUse" spreadMethod="reflect" id="fill7"><stop offset="0" stop-color="#FF0000" stop-opacity="1"/><stop offset="0.16" stop-color="#FFC000" stop-opacity="1"/><stop offset="0.34" stop-color="#FFFF00" stop-opacity="1"/><stop offset="0.51" stop-color="#006600" stop-opacity="1"/><stop offset="0.67" stop-color="#0000CC" stop-opacity="1"/><stop offset="0.83" stop-color="#000099" stop-opacity="1"/><stop offset="1" stop-color="#6600CC" stop-opacity="1"/></linearGradient></defs><g transform="translate(-605 -1063)"><g><g clip-path="url(#clip2)" filter="url(#fx0)" transform="translate(660 1182)"><g><g><path d="M363.445 139.634C353.227 139.634 344.388 143.869 336.927 152.339 329.465 160.808 324.928 171.362 323.314 183.999L399.34 183.999C399.34 154.422 387.375 139.634 363.445 139.634ZM496.337 101.722 560.062 101.722 560.062 308.222 496.337 308.222ZM744.662 96.6803C790.372 96.6803 813.227 125.047 813.227 181.781L813.227 308.222 749.704 308.222 749.704 193.477C749.704 161.48 738.276 145.482 715.422 145.482 704.397 145.482 695.323 149.717 688.197 158.187 681.072 166.656 677.509 177.412 677.509 190.452L677.509 308.222 613.785 308.222 613.785 101.722 677.509 101.722 677.509 134.391 678.316 134.391C693.508 109.25 715.623 96.6803 744.662 96.6803ZM363.848 96.6803C393.963 96.6803 417.254 105.621 433.723 123.501 450.192 141.382 458.427 165.648 458.427 196.3L458.427 223.121 323.718 223.121C325.869 253.101 344.758 268.091 380.384 268.091 403.105 268.091 423.069 262.714 440.277 251.959L440.277 297.937C421.187 308.155 396.383 313.263 365.865 313.263 332.524 313.263 306.644 304.021 288.226 285.535 269.807 267.05 260.598 241.271 260.598 208.198 260.598 173.916 270.547 146.759 290.444 126.728 310.341 106.696 334.809 96.6803 363.848 96.6803ZM157.83 14.2014C186.063 14.2014 209.859 17.764 229.218 24.8893L229.218 87.6056C209.859 76.0438 187.81 70.2629 163.073 70.2629 135.917 70.2629 114.003 78.7998 97.3322 95.8737 80.6616 112.948 72.3263 136.071 72.3264 165.245 72.3263 193.208 80.1911 215.492 95.9206 232.095 111.65 248.698 132.824 257 159.444 257 184.853 257 208.111 250.816 229.218 238.447L229.218 297.937C208.111 308.155 180.551 313.263 146.537 313.263 102.172 313.263 67.2849 300.223 41.8757 274.141 16.4665 248.06 3.76191 213.307 3.76191 169.883 3.76191 123.636 18.0462 86.1268 46.6147 57.3566 75.1832 28.5865 112.255 14.2014 157.83 14.2014ZM528.603 3.51338C539.492 3.51338 548.332 6.53827 555.121 12.5881 561.91 18.6379 565.305 26.4354 565.305 35.9807 565.305 45.6603 561.91 53.5923 555.121 59.7765 548.332 65.9608 539.492 69.0529 528.603 69.0529 517.847 69.0529 509.041 65.86 502.185 59.474 495.329 53.0881 491.9 45.257 491.9 35.9807 491.9 26.4354 495.329 18.6379 502.185 12.5881 509.041 6.53827 517.847 3.51338 528.603 3.51338Z" stroke="#FF0000" stroke-width="5" stroke-linecap="butt" stroke-linejoin="round" stroke-miterlimit="10" stroke-opacity="1" fill="#FF0000" fill-rule="evenodd" fill-opacity="1"/></g></g></g><path d="M1012.13 1310.71C1001.91 1310.71 993.074 1314.94 985.613 1323.41 978.151 1331.88 973.614 1342.44 972.001 1355.07L1048.03 1355.07C1048.03 1325.5 1036.06 1310.71 1012.13 1310.71ZM1145.02 1272.8 1208.75 1272.8 1208.75 1479.3 1145.02 1479.3ZM1393.35 1267.75C1439.06 1267.75 1461.91 1296.12 1461.91 1352.86L1461.91 1479.3 1398.39 1479.3 1398.39 1364.55C1398.39 1332.56 1386.96 1316.56 1364.11 1316.56 1353.08 1316.56 1344.01 1320.79 1336.88 1329.26 1329.76 1337.73 1326.2 1348.49 1326.2 1361.53L1326.2 1479.3 1262.47 1479.3 1262.47 1272.8 1326.2 1272.8 1326.2 1305.47 1327 1305.47C1342.19 1280.33 1364.31 1267.75 1393.35 1267.75ZM1012.53 1267.75C1042.65 1267.75 1065.94 1276.7 1082.41 1294.58 1098.88 1312.46 1107.11 1336.72 1107.11 1367.38L1107.11 1394.2 972.404 1394.2C974.555 1424.18 993.444 1439.17 1029.07 1439.17 1051.79 1439.17 1071.76 1433.79 1088.96 1423.03L1088.96 1469.01C1069.87 1479.23 1045.07 1484.34 1014.55 1484.34 981.21 1484.34 955.33 1475.1 936.912 1456.61 918.494 1438.12 909.284 1412.35 909.284 1379.27 909.284 1344.99 919.233 1317.83 939.13 1297.8 959.027 1277.77 983.495 1267.75 1012.53 1267.75ZM806.517 1185.28C834.749 1185.28 858.545 1188.84 877.904 1195.96L877.904 1258.68C858.545 1247.12 836.497 1241.34 811.76 1241.34 784.603 1241.34 762.689 1249.87 746.019 1266.95 729.348 1284.02 721.013 1307.15 721.013 1336.32 721.013 1364.28 728.877 1386.57 744.607 1403.17 760.336 1419.77 781.511 1428.07 808.13 1428.07 833.539 1428.07 856.797 1421.89 877.904 1409.52L877.904 1469.01C856.797 1479.23 829.237 1484.34 795.224 1484.34 750.858 1484.34 715.971 1471.3 690.562 1445.22 665.153 1419.13 652.448 1384.38 652.448 1340.96 652.448 1294.71 666.732 1257.2 695.301 1228.43 723.87 1199.66 760.941 1185.28 806.517 1185.28ZM1177.29 1174.59C1188.18 1174.59 1197.02 1177.61 1203.81 1183.66 1210.6 1189.71 1213.99 1197.51 1213.99 1207.06 1213.99 1216.73 1210.6 1224.67 1203.81 1230.85 1197.02 1237.04 1188.18 1240.13 1177.29 1240.13 1166.53 1240.13 1157.73 1236.93 1150.87 1230.55 1144.01 1224.16 1140.59 1216.33 1140.59 1207.06 1140.59 1197.51 1144.01 1189.71 1150.87 1183.66 1157.73 1177.61 1166.53 1174.59 1177.29 1174.59Z" stroke="url(#stroke3)" stroke-width="5" stroke-linecap="butt" stroke-linejoin="round" stroke-miterlimit="10" fill="url(#fill4)" fill-rule="evenodd"/><text fill="#000000" fill-opacity="0" font-family="Arial,Arial_MSFontService,sans-serif" font-size="309.75" direction="ltr" writing-mode="lr-tb" x="652.448" y="1445.62">Cein</text><g clip-path="url(#clip5)" filter="url(#fx1)" transform="translate(1508 1275)"><g><g><path d="M113.382 52.4821C99.2655 52.4821 88.1741 57.9941 80.1078 69.0182 72.0413 80.0423 68.0081 95.5702 68.0081 115.602 68.0081 132.81 71.8396 146.422 79.5027 156.438 87.1658 166.454 97.6522 171.462 110.962 171.462 124.137 171.462 134.791 166.386 142.925 156.236 151.058 146.086 155.125 132.676 155.125 116.005L155.125 99.6706C155.125 86.6299 151.26 75.505 143.53 66.2958 135.8 57.0867 125.75 52.4821 113.382 52.4821ZM97.0472 3.68034C122.187 3.68034 141.009 13.36 153.512 32.7194L154.319 32.7194 154.319 8.72185 218.043 8.72185 218.043 191.628C218.043 229.943 206.952 259.621 184.769 280.661 162.587 301.7 130.456 312.22 88.3758 312.22 60.5467 312.22 38.4985 308.254 22.2313 300.322L22.2313 246.681C43.4728 259.049 64.916 265.234 86.5609 265.234 108.071 265.234 124.742 259.553 136.573 248.193 148.403 236.833 154.319 221.406 154.319 201.912L154.319 185.578 153.512 185.578C138.993 208.701 117.549 220.263 89.1824 220.263 62.8321 220.263 41.9267 210.987 26.4662 192.434 11.0055 173.882 3.27523 149.01 3.27523 117.82 3.27523 82.8656 11.8794 55.1037 29.0877 34.5343 46.296 13.965 68.9492 3.68034 97.0472 3.68034Z" stroke="#FF0000" stroke-width="5" stroke-linecap="butt" stroke-linejoin="round" stroke-miterlimit="10" stroke-opacity="1" fill="#FF0000" fill-rule="evenodd" fill-opacity="1"/></g></g></g><path d="M1610.07 1316.56C1595.95 1316.56 1584.86 1322.07 1576.79 1333.09 1568.73 1344.12 1564.69 1359.64 1564.69 1379.68 1564.69 1396.88 1568.53 1410.5 1576.19 1420.51 1583.85 1430.53 1594.34 1435.54 1607.65 1435.54 1620.82 1435.54 1631.48 1430.46 1639.61 1420.31 1647.74 1410.16 1651.81 1396.75 1651.81 1380.08L1651.81 1363.75C1651.81 1350.7 1647.95 1339.58 1640.22 1330.37 1632.49 1321.16 1622.44 1316.56 1610.07 1316.56ZM1593.73 1267.75C1618.87 1267.75 1637.7 1277.43 1650.2 1296.79L1651.01 1296.79 1651.01 1272.8 1714.73 1272.8 1714.73 1455.7C1714.73 1494.02 1703.64 1523.7 1681.46 1544.74 1659.27 1565.78 1627.14 1576.29 1585.06 1576.29 1557.23 1576.29 1535.18 1572.33 1518.92 1564.4L1518.92 1510.76C1540.16 1523.12 1561.6 1529.31 1583.25 1529.31 1604.76 1529.31 1621.43 1523.63 1633.26 1512.27 1645.09 1500.91 1651.01 1485.48 1651.01 1465.99L1651.01 1449.65 1650.2 1449.65C1635.68 1472.78 1614.24 1484.34 1585.87 1484.34 1559.52 1484.34 1538.61 1475.06 1523.15 1456.51 1507.69 1437.96 1499.96 1413.08 1499.96 1381.89 1499.96 1346.94 1508.57 1319.18 1525.77 1298.61 1542.98 1278.04 1565.64 1267.75 1593.73 1267.75Z" stroke="url(#stroke6)" stroke-width="5" stroke-linecap="butt" stroke-linejoin="round" stroke-miterlimit="10" fill="url(#fill7)" fill-rule="evenodd"/><text fill="#000000" fill-opacity="0" font-family="Arial,Arial_MSFontService,sans-serif" font-size="308.54" direction="ltr" writing-mode="lr-tb" x="1499.96" y="1537.73">g</text></g></g></svg>