<svg width="1173" height="531" xmlns="http://www.w3.org/2000/svg" xmlns:xlink="http://www.w3.org/1999/xlink" xml:space="preserve" overflow="hidden"><defs><filter id="fx0" x="-10%" y="-10%" width="120%" height="120%" filterUnits="userSpaceOnUse" primitiveUnits="userSpaceOnUse"><feComponentTransfer color-interpolation-filters="sRGB"><feFuncR type="discrete" tableValues="0.082353 0.082353"/><feFuncG type="discrete" tableValues="0.376471 0.376471"/><feFuncB type="discrete" tableValues="0.509804 0.509804"/><feFuncA type="linear" slope="1.000000" intercept="0.000000"/></feComponentTransfer><feGaussianBlur stdDeviation="0.000000 0.000000"/></filter><filter id="fx1" x="-10%" y="-10%" width="120%" height="120%" filterUnits="userSpaceOnUse" primitiveUnits="userSpaceOnUse"><feComponentTransfer color-interpolation-filters="sRGB"><feFuncR type="discrete" tableValues="0.082353 0.082353"/><feFuncG type="discrete" tableValues="0.376471 0.376471"/><feFuncB type="discrete" tableValues="0.509804 0.509804"/><feFuncA type="linear" slope="1.000000" intercept="0.000000"/></feComponentTransfer><feGaussianBlur stdDeviation="0.000000 0.000000"/></filter><clipPath id="clip2"><rect x="1.16614" y="1.08472" width="814.465" height="314.75"/></clipPath><linearGradient x1="1647.43" y1="2570.51" x2="2750.87" y2="2570.51" gradientUnits="userSpaceOnUse" spreadMethod="reflect" id="stroke3"><stop offset="0" stop-color="#FF0000" stop-opacity="1"/><stop offset="0.16" stop-color="#FFC000" stop-opacity="1"/><stop offset="0.34" stop-color="#FFFF00" stop-opacity="1"/><stop offset="0.51" stop-color="#006600" stop-opacity="1"/><stop offset="0.67" stop-color="#0000CC" stop-opacity="1"/><stop offset="0.83" stop-color="#000099" stop-opacity="1"/><stop offset="1" stop-color="#6600CC" stop-opacity="1"/></linearGradient><clipPath id="clip4"><rect x="0.679443" y="1.25171" width="219.768" height="313.54"/></clipPath><linearGradient x1="1647.43" y1="2570.51" x2="2750.87" y2="2570.51" gradientUnits="userSpaceOnUse" spreadMethod="reflect" id="stroke5"><stop offset="0" stop-color="#FF0000" stop-opacity="1"/><stop offset="0.16" stop-color="#FFC000" stop-opacity="1"/><stop offset="0.34" stop-color="#FFFF00" stop-opacity="1"/><stop offset="0.51" stop-color="#006600" stop-opacity="1"/><stop offset="0.67" stop-color="#0000CC" stop-opacity="1"/><stop offset="0.83" stop-color="#000099" stop-opacity="1"/><stop offset="1" stop-color="#6600CC" stop-opacity="1"/></linearGradient></defs><g transform="translate(-1613 -2310)"><g><g clip-path="url(#clip2)" filter="url(#fx0)" transform="translate(1670 2427)"><g><g><path d="M363.349 139.705C353.132 139.705 344.292 143.94 336.831 152.41 329.369 160.88 324.832 171.433 323.219 184.071L399.245 184.071C399.245 154.494 387.279 139.705 363.349 139.705ZM496.241 101.793 559.966 101.793 559.966 308.293 496.241 308.293ZM744.566 96.7517C790.276 96.7517 813.131 125.119 813.131 181.852L813.131 308.293 749.608 308.293 749.608 193.549C749.608 161.552 738.181 145.554 715.326 145.554 704.302 145.554 695.227 149.788 688.102 158.258 680.976 166.728 677.414 177.483 677.414 190.524L677.414 308.293 613.689 308.293 613.689 101.793 677.414 101.793 677.414 134.462 678.22 134.462C693.412 109.322 715.527 96.7517 744.566 96.7517ZM363.752 96.7517C393.867 96.7517 417.159 105.692 433.628 123.573 450.096 141.453 458.331 165.72 458.331 196.372L458.331 223.193 323.622 223.193C325.773 253.173 344.662 268.163 380.289 268.163 403.009 268.163 422.973 262.785 440.182 252.03L440.182 298.009C421.091 308.226 396.287 313.335 365.769 313.335 332.428 313.335 306.548 304.092 288.13 285.606 269.712 267.121 260.502 241.342 260.502 208.27 260.502 173.988 270.451 146.831 290.348 126.799 310.245 106.768 334.713 96.7517 363.752 96.7517ZM157.734 14.2728C185.967 14.2728 209.763 17.8355 229.122 24.9608L229.122 87.677C209.763 76.1152 187.715 70.3343 162.978 70.3343 135.821 70.3343 113.907 78.8712 97.2365 95.9451 80.5659 113.019 72.2306 136.143 72.2306 165.316 72.2306 193.28 80.0953 215.563 95.8248 232.167 111.554 248.77 132.729 257.072 159.348 257.072 184.757 257.072 208.015 250.887 229.122 238.519L229.122 298.009C208.015 308.226 180.455 313.335 146.442 313.335 102.076 313.335 67.1891 300.294 41.7799 274.213 16.3707 248.131 3.66614 213.379 3.66614 169.954 3.66614 123.707 17.9504 86.1982 46.5189 57.428 75.0874 28.6579 112.159 14.2728 157.734 14.2728ZM528.507 3.58479C539.396 3.58479 548.236 6.60968 555.025 12.6595 561.814 18.7093 565.209 26.5068 565.209 36.0521 565.209 45.7318 561.814 53.6637 555.025 59.8479 548.236 66.0322 539.396 69.1243 528.507 69.1243 517.751 69.1243 508.946 65.9314 502.089 59.5455 495.233 53.1596 491.805 45.3284 491.805 36.0521 491.805 26.5068 495.233 18.7093 502.089 12.6595 508.946 6.60968 517.751 3.58479 528.507 3.58479Z" stroke="#FF0000" stroke-width="5" stroke-linecap="butt" stroke-linejoin="round" stroke-miterlimit="10" stroke-opacity="1" fill="#FFFFFF" fill-rule="evenodd" fill-opacity="1"/></g></g></g><path d="M2022.04 2555.78C2011.82 2555.78 2002.98 2560.01 1995.52 2568.48 1988.06 2576.95 1983.52 2587.51 1981.91 2600.15L2057.93 2600.15C2057.93 2570.57 2045.97 2555.78 2022.04 2555.78ZM2154.93 2517.87 2218.65 2517.87 2218.65 2724.37 2154.93 2724.37ZM2403.25 2512.83C2448.96 2512.83 2471.82 2541.19 2471.82 2597.93L2471.82 2724.37 2408.29 2724.37 2408.29 2609.62C2408.29 2577.63 2396.87 2561.63 2374.01 2561.63 2362.99 2561.63 2353.91 2565.86 2346.79 2574.33 2339.66 2582.8 2336.1 2593.56 2336.1 2606.6L2336.1 2724.37 2272.38 2724.37 2272.38 2517.87 2336.1 2517.87 2336.1 2550.54 2336.91 2550.54C2352.1 2525.4 2374.21 2512.83 2403.25 2512.83ZM2022.44 2512.83C2052.55 2512.83 2075.84 2521.77 2092.31 2539.65 2108.78 2557.53 2117.02 2581.79 2117.02 2612.45L2117.02 2639.27 1982.31 2639.27C1984.46 2669.25 2003.35 2684.24 2038.97 2684.24 2061.7 2684.24 2081.66 2678.86 2098.87 2668.1L2098.87 2714.08C2079.78 2724.3 2054.97 2729.41 2024.46 2729.41 1991.11 2729.41 1965.23 2720.17 1946.82 2701.68 1928.4 2683.2 1919.19 2657.42 1919.19 2624.34 1919.19 2590.06 1929.14 2562.91 1949.03 2542.87 1968.93 2522.84 1993.4 2512.83 2022.44 2512.83ZM1816.42 2430.35C1844.65 2430.35 1868.45 2433.91 1887.81 2441.04L1887.81 2503.75C1868.45 2492.19 1846.4 2486.41 1821.66 2486.41 1794.51 2486.41 1772.59 2494.95 1755.92 2512.02 1739.25 2529.09 1730.92 2552.22 1730.92 2581.39 1730.92 2609.35 1738.78 2631.64 1754.51 2648.24 1770.24 2664.84 1791.42 2673.15 1818.03 2673.15 1843.44 2673.15 1866.7 2666.96 1887.81 2654.59L1887.81 2714.08C1866.7 2724.3 1839.14 2729.41 1805.13 2729.41 1760.76 2729.41 1725.88 2716.37 1700.47 2690.29 1675.06 2664.21 1662.35 2629.45 1662.35 2586.03 1662.35 2539.78 1676.64 2502.27 1705.21 2473.5 1733.77 2444.73 1770.85 2430.35 1816.42 2430.35ZM2187.19 2419.66C2198.08 2419.66 2206.92 2422.68 2213.71 2428.73 2220.5 2434.78 2223.9 2442.58 2223.9 2452.13 2223.9 2461.81 2220.5 2469.74 2213.71 2475.92 2206.92 2482.11 2198.08 2485.2 2187.19 2485.2 2176.44 2485.2 2167.63 2482.01 2160.78 2475.62 2153.92 2469.23 2150.49 2461.4 2150.49 2452.13 2150.49 2442.58 2153.92 2434.78 2160.78 2428.73 2167.63 2422.68 2176.44 2419.66 2187.19 2419.66Z" stroke="url(#stroke3)" stroke-width="5" stroke-linecap="butt" stroke-linejoin="round" stroke-miterlimit="10" fill="#FFFFFF" fill-rule="evenodd" fill-opacity="1"/><text fill="#000000" fill-opacity="0" font-family="Arial,Arial_MSFontService,sans-serif" font-size="309.75" direction="ltr" writing-mode="lr-tb" x="1662.35" y="2690.69">Cein</text><g clip-path="url(#clip4)" filter="url(#fx1)" transform="translate(2518 2520)"><g><g><path d="M113.286 52.5535C99.1697 52.5535 88.0783 58.0656 80.012 69.0896 71.9455 80.1137 67.9124 95.6416 67.9124 115.673 67.9124 132.881 71.7439 146.494 79.407 156.509 87.0701 166.525 97.5564 171.533 110.866 171.533 124.041 171.533 134.695 166.458 142.829 156.308 150.963 146.157 155.03 132.747 155.03 116.076L155.03 99.742C155.03 86.7013 151.164 75.5764 143.434 66.3672 135.704 57.1581 125.654 52.5535 113.286 52.5535ZM96.9514 3.75175C122.092 3.75175 140.913 13.4314 153.416 32.7908L154.223 32.7908 154.223 8.79326 217.948 8.79326 217.948 191.699C217.948 230.014 206.856 259.692 184.674 280.732 162.491 301.772 130.36 312.292 88.2801 312.292 60.4509 312.292 38.4027 308.326 22.1355 300.394L22.1355 246.752C43.377 259.121 64.8202 265.305 86.4651 265.305 107.975 265.305 124.646 259.625 136.477 248.265 148.307 236.904 154.223 221.477 154.223 201.984L154.223 185.649 153.416 185.649C138.897 208.773 117.454 220.335 89.0866 220.335 62.7364 220.335 41.8309 211.058 26.3704 192.506 10.9098 173.953 3.17946 149.081 3.17946 117.891 3.17946 82.937 11.7836 55.1751 28.9919 34.6057 46.2003 14.0364 68.8534 3.75175 96.9514 3.75175Z" stroke="#FF0000" stroke-width="5" stroke-linecap="butt" stroke-linejoin="round" stroke-miterlimit="10" stroke-opacity="1" fill="#FFFFFF" fill-rule="evenodd" fill-opacity="1"/></g></g></g><path d="M2619.97 2561.63C2605.86 2561.63 2594.76 2567.14 2586.7 2578.16 2578.63 2589.19 2574.6 2604.72 2574.6 2624.75 2574.6 2641.96 2578.43 2655.57 2586.09 2665.58 2593.76 2675.6 2604.24 2680.61 2617.55 2680.61 2630.73 2680.61 2641.38 2675.53 2649.52 2665.38 2657.65 2655.23 2661.72 2641.82 2661.72 2625.15L2661.72 2608.82C2661.72 2595.78 2657.85 2584.65 2650.12 2575.44 2642.39 2566.23 2632.34 2561.63 2619.97 2561.63ZM2603.64 2512.83C2628.78 2512.83 2647.6 2522.51 2660.1 2541.87L2660.91 2541.87 2660.91 2517.87 2724.63 2517.87 2724.63 2700.77C2724.63 2739.09 2713.54 2768.77 2691.36 2789.81 2669.18 2810.85 2637.05 2821.37 2594.97 2821.37 2567.14 2821.37 2545.09 2817.4 2528.82 2809.47L2528.82 2755.83C2550.06 2768.2 2571.51 2774.38 2593.15 2774.38 2614.66 2774.38 2631.33 2768.7 2643.16 2757.34 2654.99 2745.98 2660.91 2730.55 2660.91 2711.06L2660.91 2694.72 2660.1 2694.72C2645.58 2717.85 2624.14 2729.41 2595.77 2729.41 2569.42 2729.41 2548.52 2720.13 2533.06 2701.58 2517.6 2683.03 2509.87 2658.16 2509.87 2626.97 2509.87 2592.01 2518.47 2564.25 2535.68 2543.68 2552.89 2523.11 2575.54 2512.83 2603.64 2512.83Z" stroke="url(#stroke5)" stroke-width="5" stroke-linecap="butt" stroke-linejoin="round" stroke-miterlimit="10" fill="#FFFFFF" fill-rule="evenodd" fill-opacity="1"/><text fill="#000000" fill-opacity="0" font-family="Arial,Arial_MSFontService,sans-serif" font-size="308.54" direction="ltr" writing-mode="lr-tb" x="2509.87" y="2782.8">g</text></g></g></svg>