<svg width="1641" height="550" xmlns="http://www.w3.org/2000/svg" xmlns:xlink="http://www.w3.org/1999/xlink" xml:space="preserve" overflow="hidden"><defs><filter id="fx0" x="-10%" y="-10%" width="120%" height="120%" filterUnits="userSpaceOnUse" primitiveUnits="userSpaceOnUse"><feComponentTransfer color-interpolation-filters="sRGB"><feFuncR type="discrete" tableValues="0.082353 0.082353"/><feFuncG type="discrete" tableValues="0.376471 0.376471"/><feFuncB type="discrete" tableValues="0.509804 0.509804"/><feFuncA type="linear" slope="1.000000" intercept="0.000000"/></feComponentTransfer><feGaussianBlur stdDeviation="0.000000 0.000000"/></filter><filter id="fx1" x="-10%" y="-10%" width="120%" height="120%" filterUnits="userSpaceOnUse" primitiveUnits="userSpaceOnUse"><feComponentTransfer color-interpolation-filters="sRGB"><feFuncR type="discrete" tableValues="0.082353 0.082353"/><feFuncG type="discrete" tableValues="0.376471 0.376471"/><feFuncB type="discrete" tableValues="0.509804 0.509804"/><feFuncA type="linear" slope="1.000000" intercept="0.000000"/></feComponentTransfer><feGaussianBlur stdDeviation="0.000000 0.000000"/></filter><clipPath id="clip2"><rect x="1.29846" y="0.909668" width="888.915" height="335.724"/></clipPath><linearGradient x1="918.17" y1="2597.29" x2="2122.44" y2="2597.29" gradientUnits="userSpaceOnUse" spreadMethod="reflect" id="stroke3"><stop offset="0" stop-color="#FF0000" stop-opacity="1"/><stop offset="0.16" stop-color="#FFC000" stop-opacity="1"/><stop offset="0.34" stop-color="#FFFF00" stop-opacity="1"/><stop offset="0.51" stop-color="#006600" stop-opacity="1"/><stop offset="0.67" stop-color="#0000CC" stop-opacity="1"/><stop offset="0.83" stop-color="#000099" stop-opacity="1"/><stop offset="1" stop-color="#6600CC" stop-opacity="1"/></linearGradient><linearGradient x1="918.17" y1="2597.29" x2="2122.44" y2="2597.29" gradientUnits="userSpaceOnUse" spreadMethod="reflect" id="fill4"><stop offset="0" stop-color="#FF0000" stop-opacity="1"/><stop offset="0.16" stop-color="#FFC000" stop-opacity="1"/><stop offset="0.34" stop-color="#FFFF00" stop-opacity="1"/><stop offset="0.51" stop-color="#006600" stop-opacity="1"/><stop offset="0.67" stop-color="#0000CC" stop-opacity="1"/><stop offset="0.83" stop-color="#000099" stop-opacity="1"/><stop offset="1" stop-color="#6600CC" stop-opacity="1"/></linearGradient><clipPath id="clip5"><rect x="0.972168" y="1.41333" width="213.929" height="326.86"/></clipPath><linearGradient x1="918.17" y1="2597.29" x2="2122.44" y2="2597.29" gradientUnits="userSpaceOnUse" spreadMethod="reflect" id="stroke6"><stop offset="0" stop-color="#FF0000" stop-opacity="1"/><stop offset="0.16" stop-color="#FFC000" stop-opacity="1"/><stop offset="0.34" stop-color="#FFFF00" stop-opacity="1"/><stop offset="0.51" stop-color="#006600" stop-opacity="1"/><stop offset="0.67" stop-color="#0000CC" stop-opacity="1"/><stop offset="0.83" stop-color="#000099" stop-opacity="1"/><stop offset="1" stop-color="#6600CC" stop-opacity="1"/></linearGradient><linearGradient x1="918.17" y1="2597.29" x2="2122.44" y2="2597.29" gradientUnits="userSpaceOnUse" spreadMethod="reflect" id="fill7"><stop offset="0" stop-color="#FF0000" stop-opacity="1"/><stop offset="0.16" stop-color="#FFC000" stop-opacity="1"/><stop offset="0.34" stop-color="#FFFF00" stop-opacity="1"/><stop offset="0.51" stop-color="#006600" stop-opacity="1"/><stop offset="0.67" stop-color="#0000CC" stop-opacity="1"/><stop offset="0.83" stop-color="#000099" stop-opacity="1"/><stop offset="1" stop-color="#6600CC" stop-opacity="1"/></linearGradient></defs><g transform="translate(-884 -2323)"><g><g clip-path="url(#clip2)" filter="url(#fx0)" transform="translate(948 2433)"><g><g><path d="M443.819 109.887C391.118 113.114 363.155 143.766 359.928 201.844L524.483 201.844C523.407 141.615 496.519 110.963 443.819 109.887ZM604.94 93.7544 629.139 93.7544 629.139 329.293 604.94 329.293ZM805.164 88.9146C861.091 87.8391 888.517 117.954 887.441 179.258L887.441 329.293 864.855 329.293 864.855 182.485C865.931 131.935 843.883 107.198 798.711 108.274 753.539 111.501 727.189 136.775 719.66 184.098L719.66 329.293 697.074 329.293 697.074 95.3677 719.66 95.3677 719.66 143.766C737.944 108.274 766.445 89.9901 805.164 88.9146ZM443.819 88.9146C512.652 91.0657 548.144 133.549 550.296 216.364 550.295 218.515 550.295 220.128 550.296 221.204L358.315 221.204C360.466 281.433 388.967 312.623 443.819 314.774 488.991 314.774 515.879 295.952 524.483 258.309L548.682 264.762C535.776 311.01 501.359 334.133 445.432 334.133 372.297 330.907 334.654 291.112 332.503 214.751 335.729 135.162 372.835 93.2167 443.819 88.9146ZM604.94 6.63727 629.139 6.63727 629.139 42.1295 604.94 42.1295ZM153.835 3.41071C216.215 5.56178 259.236 36.7519 282.897 96.981L255.471 103.434C237.187 53.9602 202.233 28.1477 150.608 25.9966 75.3216 32.4498 34.9895 80.3104 29.6119 169.579 33.914 259.922 73.1705 308.321 147.381 314.774 209.762 314.774 247.943 283.584 261.924 221.204L289.35 229.27C272.142 298.103 225.357 333.058 148.995 334.133 56.5 327.68 8.10153 273.904 3.79944 172.805 9.17704 65.2532 59.1888 8.78833 153.835 3.41071Z" stroke="#FF0000" stroke-width="5" stroke-linecap="butt" stroke-linejoin="round" stroke-miterlimit="10" stroke-opacity="1" fill="#FF0000" fill-rule="evenodd" fill-opacity="1"/></g></g></g><path d="M1380.78 2532.22C1328.08 2535.45 1300.11 2566.1 1296.88 2624.18L1461.44 2624.18C1460.36 2563.95 1433.48 2533.3 1380.78 2532.22ZM1541.9 2516.09 1566.1 2516.09 1566.1 2751.63 1541.9 2751.63ZM1742.12 2511.25C1798.05 2510.17 1825.47 2540.29 1824.4 2601.59L1824.4 2751.63 1801.81 2751.63 1801.81 2604.82C1802.89 2554.27 1780.84 2529.53 1735.67 2530.61 1690.5 2533.84 1664.15 2559.11 1656.62 2606.43L1656.62 2751.63 1634.03 2751.63 1634.03 2517.7 1656.62 2517.7 1656.62 2566.1C1674.9 2530.61 1703.4 2512.33 1742.12 2511.25ZM1380.78 2511.25C1449.61 2513.4 1485.1 2555.88 1487.25 2638.7 1487.25 2640.85 1487.25 2642.46 1487.25 2643.54L1295.27 2643.54C1297.42 2703.77 1325.92 2734.96 1380.78 2737.11 1425.95 2737.11 1452.84 2718.29 1461.44 2680.64L1485.64 2687.1C1472.73 2733.34 1438.32 2756.47 1382.39 2756.47 1309.25 2753.24 1271.61 2713.45 1269.46 2637.09 1272.69 2557.5 1309.79 2515.55 1380.78 2511.25ZM1541.9 2428.97 1566.1 2428.97 1566.1 2464.46 1541.9 2464.46ZM1090.79 2425.75C1153.17 2427.9 1196.19 2459.09 1219.85 2519.32L1192.43 2525.77C1174.14 2476.3 1139.19 2450.48 1087.56 2448.33 1012.28 2454.79 971.946 2502.65 966.569 2591.91 970.871 2682.26 1010.13 2730.66 1084.34 2737.11 1146.72 2737.11 1184.9 2705.92 1198.88 2643.54L1226.31 2651.61C1209.1 2720.44 1162.31 2755.39 1085.95 2756.47 993.457 2750.02 945.058 2696.24 940.756 2595.14 946.134 2487.59 996.145 2431.12 1090.79 2425.75Z" stroke="url(#stroke3)" stroke-width="5" stroke-linecap="butt" stroke-linejoin="round" stroke-miterlimit="10" fill="url(#fill4)" fill-rule="evenodd"/><text fill="#000000" fill-opacity="0" font-family="Arial,Arial_MSFontService,sans-serif" font-size="330.723" direction="ltr" writing-mode="lr-tb" x="940.756" y="2715.13">Cein</text><g clip-path="url(#clip5)" filter="url(#fx1)" transform="translate(1885 2518)"><g><g><path d="M111.562 23.274C57.7864 25.425 29.8228 58.7662 27.6718 123.297 28.7473 187.829 55.6353 220.632 108.336 221.708 161.036 220.632 187.924 191.593 189 134.59L189 99.0982C184.698 52.8508 158.885 27.5761 111.562 23.274ZM105.109 3.9146C143.828 4.99013 171.792 20.0474 189 49.0865L189 8.75444 211.586 8.75444 211.586 213.641C214.812 291.079 178.245 328.184 101.883 324.958 63.164 323.882 33.5872 312.051 13.1523 289.465L26.0585 276.559C44.3424 294.843 69.6171 304.523 101.883 305.598 162.112 306.674 191.151 279.786 189 224.934L189 192.668C176.094 221.708 147.055 236.227 101.883 236.227 37.3515 234.076 4.54814 196.433 3.47259 123.297 6.69915 48.011 40.578 8.21668 105.109 3.9146Z" stroke="#FF0000" stroke-width="5" stroke-linecap="butt" stroke-linejoin="round" stroke-miterlimit="10" stroke-opacity="1" fill="#FF0000" fill-rule="evenodd" fill-opacity="1"/></g></g></g><path d="M1985.52 2530.61C1931.74 2532.76 1903.78 2566.1 1901.63 2630.63 1902.7 2695.16 1929.59 2727.97 1982.29 2729.04 2034.99 2727.97 2061.88 2698.93 2062.96 2641.93L2062.96 2606.43C2058.65 2560.19 2032.84 2534.91 1985.52 2530.61ZM1979.07 2511.25C2017.78 2512.33 2045.75 2527.38 2062.96 2556.42L2062.96 2516.09 2085.54 2516.09 2085.54 2720.98C2088.77 2798.41 2052.2 2835.52 1975.84 2832.29 1937.12 2831.22 1907.54 2819.39 1887.11 2796.8L1900.02 2783.89C1918.3 2802.18 1943.57 2811.86 1975.84 2812.93 2036.07 2814.01 2065.11 2787.12 2062.96 2732.27L2062.96 2700C2050.05 2729.04 2021.01 2743.56 1975.84 2743.56 1911.31 2741.41 1878.5 2703.77 1877.43 2630.63 1880.66 2555.35 1914.53 2515.55 1979.07 2511.25Z" stroke="url(#stroke6)" stroke-width="5" stroke-linecap="butt" stroke-linejoin="round" stroke-miterlimit="10" fill="url(#fill7)" fill-rule="evenodd"/><text fill="#000000" fill-opacity="0" font-family="Arial,Arial_MSFontService,sans-serif" font-size="321.237" direction="ltr" writing-mode="lr-tb" x="1877.43" y="2792.33">g</text></g></g></svg>